<svg xmlns="http://www.w3.org/2000/svg" width="17" height="17" viewBox="0 0 17 17">
  <path fill="#495057" fill-opacity=".5" fill-rule="evenodd" d="M16.25,8 C18.5416781,8 20.4895753,8.71613867 22.09375,10.1484375 C23.6979247,11.5807363 24.5,13.3137919 24.5,15.3476562 C24.5,16.6080792 24.0488326,17.6822872 23.1464844,18.5703125 C22.2441361,19.4583378 21.1627667,19.9023438 19.9023438,19.9023438 L18.3125,19.9023438 C17.9114563,19.9023438 17.5820325,20.0384101 17.3242188,20.3105469 C17.066405,20.5826837 16.9375,20.9049461 16.9375,21.2773438 C16.9375,21.6210955 17.0520822,21.9218737 17.28125,22.1796875 C17.5104178,22.4661473 17.625,22.7812483 17.625,23.125 C17.625,23.4973977 17.4889337,23.8196601 17.2167969,24.0917969 C16.9446601,24.3639337 16.6223977,24.5 16.25,24.5 C13.9583219,24.5 12.0104247,23.6979247 10.40625,22.09375 C8.80207531,20.4895753 8,18.5416781 8,16.25 C8,13.9583219 8.80207531,12.0104247 10.40625,10.40625 C12.0104247,8.80207531 13.9583219,8 16.25,8 Z M10.234375,15.8632813 C10.4921888,16.121095 10.8144512,16.25 11.2011719,16.25 C11.5878926,16.25 11.9173163,16.1139337 12.1894531,15.8417969 C12.4615899,15.5696601 12.5976562,15.2473977 12.5976562,14.875 C12.5976562,14.5026023 12.4615899,14.1803399 12.1894531,13.9082031 C11.9173163,13.6360663 11.5878926,13.5 11.2011719,13.5 C10.8144512,13.5 10.4921888,13.6360663 10.234375,13.9082031 C9.97656121,14.1803399 9.84765625,14.5026023 9.84765625,14.875 C9.84765625,15.2473977 9.97656121,15.5768215 10.234375,15.8632813 Z M12.984375,12.2109375 C13.2421888,12.4687513 13.5644512,12.5976562 13.9511719,12.5976562 C14.3378926,12.5976562 14.6673163,12.4615899 14.9394531,12.1894531 C15.2115899,11.9173163 15.3476562,11.5878926 15.3476562,11.2011719 C15.3476562,10.8144512 15.2115899,10.4921888 14.9394531,10.234375 C14.6673163,9.97656121 14.3378926,9.84765625 13.9511719,9.84765625 C13.5644512,9.84765625 13.2421888,9.97656121 12.984375,10.234375 C12.7265612,10.4921888 12.5976562,10.8144512 12.5976562,11.2011719 C12.5976562,11.5878926 12.7265612,11.9244777 12.984375,12.2109375 Z M17.5390625,12.2109375 C17.8255223,12.4687513 18.1621074,12.5976562 18.5488281,12.5976562 C18.9355488,12.5976562 19.2578112,12.4615899 19.515625,12.1894531 C19.7734388,11.9173163 19.9023438,11.5878926 19.9023438,11.2011719 C19.9023438,10.8144512 19.7734388,10.4921888 19.515625,10.234375 C19.2578112,9.97656121 18.9355488,9.84765625 18.5488281,9.84765625 C18.1621074,9.84765625 17.8326837,9.97656121 17.5605469,10.234375 C17.2884101,10.4921888 17.1523438,10.8144512 17.1523438,11.2011719 C17.1523438,11.5878926 17.2812487,11.9244777 17.5390625,12.2109375 Z M20.2890625,15.8632813 C20.5755223,16.121095 20.9121074,16.25 21.2988281,16.25 C21.6855488,16.25 22.0078112,16.1139337 22.265625,15.8417969 C22.5234388,15.5696601 22.6523438,15.2473977 22.6523438,14.875 C22.6523438,14.5026023 22.5234388,14.1803399 22.265625,13.9082031 C22.0078112,13.6360663 21.6855488,13.5 21.2988281,13.5 C20.9121074,13.5 20.5826837,13.6360663 20.3105469,13.9082031 C20.0384101,14.1803399 19.9023438,14.5026023 19.9023438,14.875 C19.9023438,15.2473977 20.0312487,15.5768215 20.2890625,15.8632813 Z" transform="translate(-8 -8)"/>
</svg>
