<svg xmlns="http://www.w3.org/2000/svg" width="16" height="16" viewBox="0 0 16 16">
  <path fill="#343A40" fill-rule="evenodd" d="M5.94140625,16.375 L7.48828125,12.2265625 L9.03515625,16.375 L5.94140625,16.375 Z M13.5,7.76171875 C13.9218771,7.76171875 14.2792954,7.90820166 14.5722656,8.20117188 C14.8652358,8.49414209 15.0117188,8.83984176 15.0117188,9.23828125 L15.0117188,21.2617188 C15.0117188,21.6601582 14.8652358,22.0058579 14.5722656,22.2988281 C14.2792954,22.5917983 13.9218771,22.7382812 13.5,22.7382812 L1.51171875,22.7382812 C1.08984164,22.7382812 0.73242334,22.5917983 0.439453125,22.2988281 C0.14648291,22.0058579 0,21.6601582 0,21.2617188 L0,9.23828125 C0,8.83984176 0.14648291,8.49414209 0.439453125,8.20117188 C0.73242334,7.90820166 1.08984164,7.76171875 1.51171875,7.76171875 L13.5,7.76171875 Z M10.4765625,20.1367188 L12.0234375,20.1367188 L8.19140625,10.3632812 L6.78515625,10.3632812 L2.953125,20.1367188 L4.53515625,20.1367188 L5.37890625,17.8867188 L9.59765625,17.8867188 L10.4765625,20.1367188 Z" transform="translate(0 -7)"/>
</svg>
