<svg xmlns="http://www.w3.org/2000/svg" width="15" height="4" viewBox="0 0 15 4">
  <path fill="#495057" fill-rule="evenodd" d="M9.515625,14.5585938 C9.8880227,14.1861961 10.3248673,14 10.8261719,14 C11.3274765,14 11.7571597,14.1790347 12.1152344,14.5371094 C12.4733091,14.8951841 12.6523438,15.3320287 12.6523438,15.8476562 C12.6523438,16.3632838 12.4733091,16.8001284 12.1152344,17.1582031 C11.7571597,17.5162778 11.3274765,17.6953125 10.8261719,17.6953125 C10.3248673,17.6953125 9.89518408,17.5162778 9.53710938,17.1582031 C9.17903467,16.8001284 9,16.3632838 9,15.8476562 C9,15.3320287 9.17187328,14.9023455 9.515625,14.5585938 Z M20.515625,14.5585938 C20.8880227,14.1861961 21.3248673,14 21.8261719,14 C22.3274765,14 22.7571597,14.1790347 23.1152344,14.5371094 C23.4733091,14.8951841 23.6523438,15.3320287 23.6523438,15.8476562 C23.6523438,16.3632838 23.4733091,16.8001284 23.1152344,17.1582031 C22.7571597,17.5162778 22.3274765,17.6953125 21.8261719,17.6953125 C21.3248673,17.6953125 20.8951841,17.5162778 20.5371094,17.1582031 C20.1790347,16.8001284 20,16.3632838 20,15.8476562 C20,15.3320287 20.1718733,14.9023455 20.515625,14.5585938 Z M15.015625,14.5585938 C15.3880227,14.1861961 15.8248673,14 16.3261719,14 C16.8274765,14 17.2571597,14.1790347 17.6152344,14.5371094 C17.9733091,14.8951841 18.1523438,15.3320287 18.1523438,15.8476562 C18.1523438,16.3632838 17.9733091,16.8001284 17.6152344,17.1582031 C17.2571597,17.5162778 16.8274765,17.6953125 16.3261719,17.6953125 C15.8248673,17.6953125 15.3951841,17.5162778 15.0371094,17.1582031 C14.6790347,16.8001284 14.5,16.3632838 14.5,15.8476562 C14.5,15.3320287 14.6718733,14.9023455 15.015625,14.5585938 Z" transform="translate(-9 -14)"/>
</svg>
