<svg xmlns="http://www.w3.org/2000/svg" width="9" height="11" viewBox="0 0 9 11">
  <path fill="#343A40" fill-rule="evenodd" d="M6.43359375,14.3359375 C6.92578371,14.5703137 7.31835791,14.9160133 7.61132812,15.3730469 C7.90429834,15.8300804 8.05078125,16.3398409 8.05078125,16.9023438 C8.05078125,17.6992227 7.7812527,18.3730441 7.2421875,18.9238281 C6.7031223,19.4746121 6.04687887,19.75 5.2734375,19.75 L0,19.75 L0,9.23828125 L4.67578125,9.23828125 C5.51953547,9.23828125 6.23437207,9.53124707 6.8203125,10.1171875 C7.40625293,10.7031279 7.69921875,11.4179645 7.69921875,12.2617188 C7.69921875,13.0820354 7.27734797,13.7734347 6.43359375,14.3359375 Z M2.25,11.1367188 L2.25,13.3867188 L4.5,13.3867188 C4.80468902,13.3867188 5.06835826,13.2753917 5.29101562,13.0527344 C5.51367299,12.830077 5.625,12.5605485 5.625,12.2441406 C5.625,11.9277328 5.51367299,11.6640636 5.29101562,11.453125 C5.06835826,11.2421864 4.80468902,11.1367188 4.5,11.1367188 L2.25,11.1367188 Z M4.88671875,17.8867188 C5.19140777,17.8867188 5.45507701,17.7753917 5.67773438,17.5527344 C5.90039174,17.330077 6.01171875,17.0605485 6.01171875,16.7441406 C6.01171875,16.4277328 5.90039174,16.1640636 5.67773438,15.953125 C5.45507701,15.7421864 5.19140777,15.6367188 4.88671875,15.6367188 L2.25,15.6367188 L2.25,17.8867188 L4.88671875,17.8867188 Z" transform="translate(.143 -9)"/>
</svg>
