<?xml version="1.0" encoding="UTF-8"?>
<svg width="213px" height="52px" viewBox="0 0 213 52" version="1.1" xmlns="http://www.w3.org/2000/svg" xmlns:xlink="http://www.w3.org/1999/xlink">
    <g id="crayons-logo" stroke="none" stroke-width="1" fill="none" fill-rule="evenodd">
        <path d="M26.7679999,24.58 L19.5399999,24.58 C19.0719999,21.564 17.1479999,19.952 14.0799999,19.952 C9.34799992,19.952 7.78799992,24.736 7.78799992,28.688 C7.78799992,32.536 9.29599992,37.164 13.9239999,37.164 C17.3559999,37.164 19.3319999,34.98 19.7999999,31.704 L26.9239999,31.704 C25.9879999,38.828 21.0479999,42.728 13.9759999,42.728 C5.86399992,42.728 0.403999917,37.008 0.403999917,28.948 C0.403999917,20.576 5.39599992,14.388 14.1319999,14.388 C20.4759999,14.388 26.2999999,17.716 26.7679999,24.58 Z M30.1839999,42 L30.1839999,15.116 L37.2039999,15.116 L37.2039999,20.108 L37.3079999,20.108 C38.6599999,16.728 42.2999999,14.388 45.8879999,14.388 C46.4079999,14.388 47.0319999,14.492 47.4999999,14.648 L47.4999999,21.512 C46.8239999,21.356 45.7319999,21.252 44.8479999,21.252 C39.4399999,21.252 37.5679999,25.152 37.5679999,29.884 L37.5679999,42 L30.1839999,42 Z M66.256,31.6 L66.256,28.844 C65.008,29.936 62.408,29.988 60.12,30.404 C57.832,30.872 55.752,31.652 55.752,34.356 C55.752,37.112 57.884,37.788 60.276,37.788 C66.048,37.788 66.256,33.212 66.256,31.6 Z M56.584,23.384 L49.2,23.384 C49.616,16.468 55.804,14.388 61.836,14.388 C67.192,14.388 73.64,15.584 73.64,22.032 L73.64,36.02 C73.64,38.464 73.9,40.908 74.576,42 L67.088,42 C66.828,41.168 66.62,40.284 66.568,39.4 C64.228,41.844 60.796,42.728 57.52,42.728 C52.424,42.728 48.368,40.18 48.368,34.668 C48.368,28.584 52.944,27.128 57.52,26.504 C62.044,25.828 66.256,25.984 66.256,22.968 C66.256,19.796 64.072,19.328 61.472,19.328 C58.664,19.328 56.844,20.472 56.584,23.384 Z M102.952,15.116 L91.72,45.38 C90.108,49.696 87.56,51.464 82.464,51.464 C80.956,51.464 79.448,51.36 77.94,51.204 L77.94,45.12 C79.344,45.224 80.8,45.432 82.256,45.38 C84.804,45.12 85.636,42.468 84.804,40.336 L75.34,15.116 L83.244,15.116 L89.328,33.524 L89.432,33.524 L95.308,15.116 L102.952,15.116 Z M103.716,28.584 C103.716,20.004 109.176,14.388 117.6,14.388 C126.076,14.388 131.536,20.004 131.536,28.584 C131.536,37.112 126.076,42.728 117.6,42.728 C109.176,42.728 103.716,37.112 103.716,28.584 Z M111.1,28.584 C111.1,32.848 112.608,37.164 117.6,37.164 C122.644,37.164 124.152,32.848 124.152,28.584 C124.152,24.268 122.644,19.952 117.6,19.952 C112.608,19.952 111.1,24.268 111.1,28.584 Z M135.42,42 L135.42,15.116 L142.44,15.116 L142.44,18.86 L142.596,18.86 C144.468,15.844 147.692,14.388 150.812,14.388 C158.664,14.388 160.64,18.808 160.64,25.464 L160.64,42 L153.256,42 L153.256,26.816 C153.256,22.396 151.956,20.212 148.524,20.212 C144.52,20.212 142.804,22.448 142.804,27.908 L142.804,42 L135.42,42 Z M164.056,33.264 L171.076,33.264 C171.128,36.488 173.832,37.788 176.744,37.788 C178.876,37.788 181.58,36.956 181.58,34.356 C181.58,32.12 178.512,31.34 173.208,30.196 C168.944,29.26 164.68,27.752 164.68,23.02 C164.68,16.156 170.608,14.388 176.38,14.388 C182.256,14.388 187.664,16.364 188.236,22.968 L181.216,22.968 C181.008,20.108 178.824,19.328 176.172,19.328 C174.508,19.328 172.064,19.64 172.064,21.824 C172.064,24.476 176.224,24.84 180.436,25.828 C184.752,26.816 188.964,28.376 188.964,33.368 C188.964,40.44 182.828,42.728 176.692,42.728 C170.452,42.728 164.368,40.388 164.056,33.264 Z" id="crayons" fill="#ffffff"></path>
        <path d="M189.009738,12.6716971 C189.009738,10.8874847 189.337859,9.27122244 189.994113,7.82286178 C190.650366,6.37450113 191.530565,5.14131399 192.634738,4.12326339 C193.73891,3.10521278 195.014939,2.31807206 196.462863,1.76181761 C197.910787,1.20556315 199.426396,0.927440095 201.009738,0.927440095 C202.593079,0.927440095 204.108689,1.20556315 205.556613,1.76181761 C207.004537,2.31807206 208.280565,3.10521278 209.384738,4.12326339 C210.48891,5.14131399 211.369109,6.37450113 212.025363,7.82286178 C212.681616,9.27122244 213.009738,10.8874847 213.009738,12.6716971 C213.009738,14.4769003 212.681616,16.1036578 212.025363,17.5520184 C211.369109,19.0003791 210.48891,20.2388138 209.384738,21.2673598 C208.280565,22.2959057 207.004537,23.0830465 205.556613,23.6288056 C204.108689,24.1745646 202.593079,24.4474401 201.009738,24.4474401 C199.426396,24.4474401 197.910787,24.1745646 196.462863,23.6288056 C195.014939,23.0830465 193.73891,22.2959057 192.634738,21.2673598 C191.530565,20.2388138 190.650366,19.0003791 189.994113,17.5520184 C189.337859,16.1036578 189.009738,14.4769003 189.009738,12.6716971 Z M192.197238,12.6716971 C192.197238,14.0151041 192.426402,15.2535388 192.884738,16.3870385 C193.343073,17.5205381 193.968067,18.5018402 194.759738,19.3309742 C195.551408,20.1601082 196.483691,20.8055636 197.556613,21.2673598 C198.629535,21.7291559 199.780565,21.9600505 201.009738,21.9600505 C202.218077,21.9600505 203.358691,21.7291559 204.431613,21.2673598 C205.504535,20.8055636 206.436817,20.1601082 207.228488,19.3309742 C208.020158,18.5018402 208.65036,17.5205381 209.119113,16.3870385 C209.587865,15.2535388 209.822238,14.0151041 209.822238,12.6716971 C209.822238,11.3282901 209.587865,10.095103 209.119113,8.97209873 C208.65036,7.84909445 208.020158,6.87828756 207.228488,6.05964893 C206.436817,5.2410103 205.504535,4.60080251 204.431613,4.13900636 C203.358691,3.67721021 202.218077,3.4463156 201.009738,3.4463156 C199.780565,3.4463156 198.629535,3.67721021 197.556613,4.13900636 C196.483691,4.60080251 195.551408,5.2410103 194.759738,6.05964893 C193.968067,6.87828756 193.343073,7.84909445 192.884738,8.97209873 C192.426402,10.095103 192.197238,11.3282901 192.197238,12.6716971 Z M196.353488,6.05964893 L201.290988,6.05964893 C202.936829,6.05964893 204.202442,6.3535148 205.087863,6.94125536 C205.973284,7.52899591 206.415988,8.53653604 206.415988,9.96390596 C206.415988,10.5726372 206.327447,11.0921501 206.150363,11.5224602 C205.973278,11.9527702 205.728489,12.3043597 205.415988,12.5772393 C205.103486,12.8501188 204.738906,13.060023 204.322238,13.2069582 C203.905569,13.3538933 203.457657,13.4483502 202.978488,13.4903317 L206.478488,19.2522594 L203.759738,19.2522594 L200.572238,13.6162754 L198.947238,13.6162754 L198.947238,19.2522594 L196.353488,19.2522594 L196.353488,6.05964893 Z M198.947238,11.5696891 L201.259738,11.5696891 C202.009741,11.5696891 202.624319,11.464737 203.103488,11.2548297 C203.582657,11.0449223 203.822238,10.5411522 203.822238,9.74350435 C203.822238,9.38666187 203.738905,9.10329121 203.572238,8.89338387 C203.40557,8.68347653 203.192031,8.52080078 202.931613,8.40535174 C202.671195,8.2899027 202.379531,8.21118863 202.056613,8.16920716 C201.733694,8.12722569 201.426406,8.10623528 201.134738,8.10623528 L198.947238,8.10623528 L198.947238,11.5696891 Z" id="registered" fill="#ffffff"></path>
    </g>
</svg>